<?xml version="1.0" encoding="UTF-8"?><svg id="a" xmlns="http://www.w3.org/2000/svg" width="403.65" height="98.58" viewBox="0 0 403.65 98.58"><g><path d="M399.85,68.85c-.12,.47-.27,.94-.37,1.41-1.34,6.09-5.89,10.2-12.06,10.93-.82,.1-1.11-.1-1.07-.96,.06-1.45,.03-2.91,0-4.36-.01-.57,.17-.78,.77-.88,3.97-.67,6.47-3.68,6.48-7.71,0-6.87,.01-13.74,.02-20.61,0-.36,0-.72,0-1.22h6.23v23.4Z" fill="#f5c9ca"/><path d="M177.03,48.24c.7-1.31,1.87-1.47,3.22-1.43,5.59,.15,11.18,.27,16.76,.34,.91,.01,1.3,.25,1.29,1.18,0,.54,.13,1.08,.22,1.74-.65,.05-1.22,.11-1.79,.13-5.52,.19-11.05,.35-16.57,.58-1.34,.06-2.44-.18-3.13-1.42v-1.11Z" fill="#f5c9ca"/><path d="M399.85,43.41c-1.75-.03-3.51-.1-5.26-.07-.78,.01-1.01-.25-.99-1.01,.05-1.51,.04-3.02,0-4.53-.01-.64,.15-.96,.88-.94,1.79,.05,3.58,.04,5.36,.05v6.5Z" fill="#f5c9ca"/><path d="M200.21,50.31c.74-.06,1.29-.12,1.84-.13,3.43-.11,6.86-.22,10.3-.28,.4,0,.88,.19,1.2,.45,1.16,.97,2.58,.97,3.58-.08,.92-.97,.92-2.46,0-3.44-.96-1.01-2.46-1-3.59-.05-.31,.27-.8,.47-1.2,.47-3.93-.03-7.86-.13-11.78-.16-.97,0-.87-.54-.76-1.15,.57-3.17,2.26-5.72,4.44-7.98,3.56-3.69,7.88-6.24,12.51-8.32,.54-.24,.81-.17,1.05,.41,.62,1.55,1.34,3.06,1.95,4.61,.14,.35,.14,.83,.01,1.19-.52,1.43,0,2.83,1.37,3.38,1.24,.51,2.71-.11,3.24-1.36,.55-1.29-.04-2.64-1.41-3.29-.24-.11-.56-.25-.65-.46-.75-1.89-1.45-3.79-2.16-5.68,5.95-3.16,21.54-4.19,27.04-1.76-.34,.45-.64,.9-1,1.29-1.2,1.29-2.35,2.63-3.65,3.82-1.15,1.05-2.18,.82-2.95-.55-.45-.8-.78-1.68-1.16-2.53-.12-.26-.25-.52-.38-.78-.08,.01-.16,.03-.24,.04-.03,.41-.04,.83-.08,1.24-.06,.68-.07,1.36-.21,2.02-.68,3.14-2.9,4.63-6.09,4.08-.96-.17-1.92-.41-2.98-.43,.24,.2,.52,.37,.73,.59,.95,1.04,2.01,2.01,2.79,3.16,.82,1.2,.7,2.58-.25,3.71-.95,1.13-2.01,2.17-3.02,3.25-.16,.17-.35,.33-.73,.66,.45-.05,.66-.07,.87-.1,1.56-.21,3.12-.59,4.67-.59,2.3,0,3.67,1.17,4.32,3.37,.28,.94,.47,1.9,.88,2.91,.12-.31,.23-.63,.35-.94,.4-1.1,.71-2.25,1.23-3.29,.83-1.65,2.25-2.32,4.08-2.03,.85,.13,1.68,.39,2.52,.6,.38,.09,.75,.22,1.31,.38-.17-.4-.26-.61-.35-.82-.25-.57-.55-1.12-.73-1.7-.75-2.34-.25-3.44,2.02-4.41,1.27-.54,2.56-1.03,3.84-1.76-.33-.03-.67-.05-1-.07-.92-.06-1.86-.04-2.77-.19-1.36-.21-1.87-1.19-1.06-2.27,1.11-1.47,2.44-2.78,3.71-4.12,.46-.49,1.03-.88,1.61-1.36,1.83,1.61,2.99,3.5,3.2,5.91,.27,3.08-.92,5.7-2.7,8.08-2.91,3.91-6.77,6.66-11.05,8.86-8.05,4.13-16.59,6.2-25.65,5.91-4.34-.14-8.54-.91-12.37-3.12-1.66-.96-3.07-2.19-4.05-3.86-.21-.36-.37-.76-.64-1.32Z" fill="#f5c9ca"/><path d="M259.28,45.51c.1,.33,.25,.66,.29,1.01,.89,7.33,1.77,14.67,2.66,22,.11,.92,.19,1.85,.36,2.76,.67,3.64-.56,6.77-2.61,9.66-3.07,4.31-7.27,7.19-12.05,9.29-5.54,2.43-11.33,3.73-17.38,3.61-3.8-.08-7.5-.78-10.92-2.55-3.05-1.58-5.22-3.9-6.57-7.13-3.17-7.59-6.49-15.11-9.73-22.66-.13-.3-.15-.66-.23-.98,.08-.05,.17-.1,.25-.15,.26,.21,.55,.4,.78,.64,6.96,7.8,13.91,15.61,20.86,23.42,.16,.18,.32,.39,.51,.54,.3,.23,.62,.41,.94,.62,.19-.34,.44-.66,.55-1.02,2.02-7.23,4.03-14.47,6.04-21.7,.36-1.28,.58-1.33,1.52-.4,5.41,5.31,10.81,10.62,16.23,15.92,.22,.22,.62,.49,.83,.42,.23-.08,.42-.51,.48-.81,1.94-9.32,3.85-18.64,5.78-27.96,.26-1.24,.51-2.48,.78-3.72,.06-.28,.21-.53,.32-.8,.11,0,.22,0,.33,.01Z" fill="#f5c9ca"/><path d="M318.74,69.07c0-3.31,0-6.62,0-9.93,.02-6.36,4.05-11.78,10.04-13.52,6.04-1.76,12.34,.61,15.79,5.92,5.52,8.51,.06,20.21-10.03,21.34-2.81,.31-5.68,.17-8.52,.15-.91,0-1.26,.21-1.22,1.18,.07,1.95-.01,3.9,.03,5.85,.02,.78-.17,1.11-1.02,1.07-1.36-.07-2.72-.05-4.08,0-.76,.03-1.01-.22-1-1,.04-3.68,.02-7.36,.02-11.04Zm12.44-2.08s0-.03,0-.04c1.05-.06,2.12,.02,3.14-.19,3.92-.78,6.61-4.38,6.32-8.3-.29-3.93-3.62-7.15-7.57-7.31-4-.16-7.58,2.63-8.07,6.67-.32,2.68-.12,5.43-.2,8.14-.03,.84,.32,1.06,1.09,1.04,1.76-.04,3.52-.01,5.28-.01Z" fill="#f5c9ca"/><path d="M363.29,61.95c1.31,2.8,3.21,4.47,5.98,4.87,1.76,.26,3.57,.16,5.37,.2,1.02,.02,2.04,.02,3.06,0,.48,0,.75,.1,.75,.66-.02,1.58,.01,3.16-.03,4.73,0,.22-.35,.63-.53,.62-3.48-.11-6.99,.4-10.45-.35-5.5-1.2-9.88-5.99-10.61-11.57-1.05-7.97,4.19-14.85,12.13-15.95,8.08-1.11,15.61,5.42,15.65,13.58,0,.77-.05,1.54-.08,2.31-.03,.69-.37,.9-1.07,.9-5.29-.03-10.58-.02-15.87-.02-1.35,0-2.69,0-4.29,0Zm14.52-5.87c-.78-2.81-4.06-4.95-7.36-4.91-3,.03-6.31,2.33-6.95,4.91h14.32Z" fill="#f5c9ca"/><path d="M287.09,62.17c0,3.28-.02,6.56,.02,9.84,0,.8-.21,1.1-1.05,1.06-1.36-.06-2.72-.06-4.08,0-.85,.04-1.11-.22-1.1-1.09,.06-6.43,.08-12.87,.11-19.3q0-1.52-1.52-1.52c-1.42,0-2.85-.04-4.27,.02-.79,.03-1.12-.17-1.07-1.02,.07-1.23,.06-2.48,0-3.71-.04-.85,.3-1.06,1.08-1.04,1.55,.04,3.09-.01,4.64,.02,.77,.02,1.09-.2,1.07-1.05-.04-2.13,.05-4.27,.03-6.4,0-.78,.2-1.13,1.04-1.1,1.36,.05,2.72,.05,4.08,0,.84-.04,1.04,.3,1.02,1.09-.05,2.16,.01,4.33-.03,6.5-.01,.74,.25,.98,.96,.97,1.67-.03,3.34,0,5.01-.02,.64-.01,.88,.21,.86,.86-.04,1.3-.05,2.6,0,3.9,.02,.75-.19,1.05-.99,1.02-1.61-.06-3.22,.02-4.82-.03-.77-.02-1.02,.23-1.01,1,.03,3.34,.01,6.68,.02,10.02Z" fill="#f5c9ca"/><path d="M354.77,54.92c0,5.63,0,11.26,0,16.9,0,1.22,0,1.22-1.23,1.22-1.3,0-2.6-.04-3.9,.02-.81,.04-.99-.28-.99-1.02,.01-6.13-.01-12.25-.02-18.38,0-5.23,.02-10.46-.02-15.69,0-.88,.28-1.12,1.11-1.1,1.3,.04,2.6,.01,3.9-.07,.88-.06,1.17,.22,1.17,1.13-.04,5.66-.02,11.33-.02,16.99h0Z" fill="#f5c9ca"/><path d="M293.59,65c.1-2.78-.01-5.58,.34-8.33,.8-6.31,6.48-11.19,12.81-11.28,.56,0,.79,.17,.78,.74-.02,1.42,.02,2.85-.04,4.27,0,.25-.34,.66-.57,.7-5.04,.8-7.26,3.33-7.3,8.46-.03,4.15-.03,8.29,0,12.44,0,.8-.21,1.1-1.04,1.06-1.33-.06-2.66-.05-3.99,0-.69,.02-.92-.22-.91-.91,.03-2.38,.01-4.76,.01-7.15-.03,0-.06,0-.09,0Z" fill="#f5c9ca"/><path d="M316.11,59.29c0,4.24-.02,8.48,.02,12.72,0,.81-.23,1.09-1.05,1.05-1.39-.06-2.78-.04-4.18,0-.61,.01-.89-.14-.89-.82,.02-8.66,.02-17.33,0-25.99,0-.68,.29-.85,.89-.84,1.42,.02,2.85,.03,4.27,0,.73-.02,.96,.27,.95,.99-.03,4.3-.01,8.6-.01,12.9Z" fill="#f5c9ca"/><path d="M240.29,41.14c-1.23,0-2.23-.89-2.32-2.08-.1-1.37,.68-2.41,2.02-2.5,.73-.05,1.17-.35,1.62-.87,7.03-8.23,14.06-16.46,21.11-24.67,.33-.38,.76-.76,1.22-.94,.85-.34,1.81,.05,2.28,.78,.48,.77,.37,1.78-.36,2.55-1.58,1.69-3.19,3.37-4.79,5.05-6.03,6.34-12.06,12.68-18.06,19.05-.23,.24-.36,.7-.34,1.04,.09,1.46-.92,2.6-2.38,2.6Z" fill="#f5c9ca"/><path d="M219.4,27.02c-.81,.31-1.55,.6-2.37,.91-.76-1.73-1.49-3.39-2.22-5.05-2.68-6.15-5.35-12.3-8.02-18.45-.33-.75-.5-1.59,.08-2.18,.45-.46,1.18-.82,1.81-.87,.82-.06,1.39,.58,1.69,1.37,.8,2.11,1.59,4.22,2.38,6.34,2.14,5.73,4.28,11.47,6.42,17.2,.07,.2,.13,.41,.24,.74Z" fill="#f5c9ca"/></g><text transform="translate(1.59 71.37) scale(.95 1)" fill="#f5c9ca" font-family="Obviously-ExtdMedi, Obviously" font-size="13.64"><tspan x="0" y="0">P</tspan><tspan x="17.29" y="0" letter-spacing="-.02em">r</tspan><tspan x="28.77" y="0">esen</tspan><tspan x="92.31" y="0" letter-spacing="-.01em">t</tspan><tspan x="105.59" y="0">ed by</tspan></text></svg>