<?xml version="1.0" encoding="UTF-8"?><svg id="a" xmlns="http://www.w3.org/2000/svg" width="183.72" height="169.99" viewBox="0 0 183.72 169.99"><path d="M91.86,67.31c-9.67,0-17.51,7.84-17.51,17.51s7.84,17.52,17.51,17.52,17.51-7.84,17.51-17.52-7.84-17.51-17.51-17.51Z" fill="#f5c9ca"/><path d="M132.82,53.84c-.95-2.45-2.09-4.2-3.93-6.04-1.84-1.84-3.59-2.98-6.04-3.93-1.85-.72-4.63-1.58-9.76-1.81-5.54-.25-7.2-.31-21.23-.31s-15.69,.05-21.23,.31c-5.12,.23-7.91,1.09-9.76,1.81-2.45,.95-4.2,2.09-6.04,3.93-1.84,1.84-2.98,3.59-3.93,6.04-.72,1.85-1.58,4.63-1.81,9.76-.25,5.54-.31,7.2-.31,21.23s.05,15.69,.31,21.23c.23,5.12,1.09,7.91,1.81,9.76,.95,2.45,2.09,4.2,3.93,6.04,1.84,1.84,3.59,2.98,6.04,3.93,1.85,.72,4.63,1.58,9.76,1.81,5.54,.25,7.2,.31,21.23,.31s15.69-.05,21.23-.31c5.12-.23,7.91-1.09,9.76-1.81,2.45-.95,4.2-2.09,6.04-3.93,1.84-1.84,2.98-3.59,3.93-6.04,.72-1.85,1.58-4.63,1.81-9.76,.25-5.54,.31-7.2,.31-21.23s-.05-15.69-.31-21.23c-.23-5.12-1.09-7.91-1.81-9.76Zm-40.96,57.97c-14.9,0-26.98-12.08-26.98-26.98s12.08-26.98,26.98-26.98,26.98,12.08,26.98,26.98-12.08,26.98-26.98,26.98Zm28.05-48.72c-3.48,0-6.31-2.82-6.31-6.31s2.82-6.31,6.31-6.31,6.31,2.82,6.31,6.31-2.82,6.31-6.31,6.31Z" fill="#f5c9ca"/><path d="M91.86,1.37C45.77,1.37,8.41,38.74,8.41,84.83s37.36,83.45,83.45,83.45,83.45-37.36,83.45-83.45S137.95,1.37,91.86,1.37Zm52.23,105.12c-.26,5.59-1.14,9.41-2.44,12.75-1.34,3.46-3.14,6.39-6.06,9.31-2.92,2.92-5.85,4.72-9.31,6.06-3.34,1.3-7.16,2.19-12.75,2.44-5.6,.26-7.39,.32-21.66,.32s-16.06-.06-21.66-.32c-5.59-.26-9.41-1.14-12.75-2.44-3.46-1.34-6.39-3.14-9.31-6.06-2.92-2.92-4.72-5.85-6.06-9.31-1.3-3.34-2.19-7.16-2.44-12.75-.26-5.6-.32-7.39-.32-21.66s.06-16.06,.32-21.66c.26-5.59,1.14-9.41,2.44-12.75,1.34-3.46,3.14-6.39,6.06-9.31,2.92-2.92,5.85-4.72,9.31-6.06,3.34-1.3,7.16-2.19,12.75-2.44,5.6-.26,7.39-.32,21.66-.32s16.06,.06,21.66,.32c5.59,.26,9.41,1.14,12.75,2.44,3.46,1.34,6.39,3.14,9.31,6.06,2.92,2.92,4.72,5.85,6.06,9.31,1.3,3.34,2.19,7.16,2.44,12.75,.26,5.6,.32,7.39,.32,21.66s-.06,16.06-.32,21.66Z" fill="#f5c9ca"/></svg>