<?xml version="1.0" encoding="UTF-8"?><svg id="a" xmlns="http://www.w3.org/2000/svg" width="183.72" height="169.99" viewBox="0 0 183.72 169.99"><path d="M91.86,1.37C45.77,1.37,8.41,38.74,8.41,84.83s37.36,83.45,83.45,83.45,83.45-37.36,83.45-83.45S137.95,1.37,91.86,1.37Zm45.86,73.9c-3.11,0-6.17-.42-9.2-1.11-5.2-1.19-10.01-3.31-14.46-6.23-.23-.15-.48-.48-.73-.37-.31,.14-.15,.55-.15,.83,0,11.97,.04,23.94-.02,35.91-.05,8.37-2.71,15.85-8.19,22.23-5.82,6.77-13.21,10.71-22.09,11.79-6.84,.84-13.33-.4-19.49-3.44-1-.49-1.95-1.07-2.84-1.74-.28-.25-.56-.5-.84-.75h0c-.67-.29-1.21-.77-1.77-1.22-5.5-4.36-9.37-9.85-11.51-16.55-.74-2.33-1.2-4.72-1.43-7.16-.16-1.77-.18-3.53-.07-5.29,.27-4.06,1.23-7.95,2.9-11.66,1.75-3.88,4.14-7.32,7.18-10.29,3.54-3.47,7.63-6.06,12.3-7.74,2.93-1.05,5.94-1.69,9.04-1.92,2.25-.16,4.48-.11,6.72,.15,.3,.04,.48,.1,.47,.46-.02,1.24-.02,2.48-.03,3.73,.02,.02,.18,9.45,.18,13.76,0,.15,0,.3-.01,.46-.02,.43-.24,.58-.65,.46-1.18-.34-2.39-.49-3.61-.56-1.89-.1-3.76,.17-5.52,.82-5.93,2.19-9.53,6.44-10.28,12.69-.74,6.17,1.69,11.1,6.82,14.65,.43,.3,.87,.58,1.27,.91,.1,.09,.19,.18,.29,.26,1.19,.47,2.38,.95,3.65,1.2,4.03,.8,7.82,.18,11.31-1.97,4.03-2.49,6.41-6.13,7.25-10.78,.16-.88,.18-1.77,.18-2.67,0-24.04,0-48.07,0-72.11,0-1.12-.16-.98,.96-.98,5.54,0,11.08,0,16.63,0,.13,0,.26,0,.39,0,.57,0,.58,0,.57,.58,0,1.28,.53,4.3,.58,4.54,2.4,12.15,16.56,19.58,20.93,20.24,1.2,.18,2.41,.33,3.63,.32,.51,0,.52,.01,.52,.5,0,1.13,.22,12.75,.22,17,0,.97-.13,1.02-1.11,1.02Z" fill="#f5c9ca"/></svg>