<?xml version="1.0" encoding="UTF-8"?><svg id="a" xmlns="http://www.w3.org/2000/svg" width="183.72" height="169.99" viewBox="0 0 183.72 169.99"><path d="M91.86,1.37C45.77,1.37,8.41,38.74,8.41,84.83s37.36,83.45,83.45,83.45,83.45-37.36,83.45-83.45S137.95,1.37,91.86,1.37Zm38.27,120.37c-1.5,2.46-4.7,3.23-7.15,1.73-19.6-11.98-44.26-14.68-73.31-8.05-2.8,.64-5.59-1.11-6.23-3.91-.64-2.8,1.11-5.59,3.91-6.23,31.79-7.27,59.06-4.14,81.05,9.3,2.45,1.5,3.22,4.7,1.73,7.15Zm10.21-22.72c-1.89,3.06-5.89,4.02-8.95,2.14-22.43-13.78-56.62-17.78-83.16-9.72-3.44,1.04-7.07-.9-8.12-4.33-1.04-3.44,.9-7.07,4.34-8.11,30.31-9.2,67.99-4.74,93.75,11.09,3.06,1.88,4.02,5.89,2.14,8.94Zm.88-23.66c-26.9-15.98-71.27-17.44-96.95-9.65-4.12,1.25-8.48-1.08-9.73-5.2-1.25-4.13,1.08-8.48,5.2-9.74,29.48-8.95,78.48-7.22,109.45,11.16,3.71,2.2,4.93,6.99,2.73,10.69-2.2,3.71-6.99,4.93-10.69,2.73Z" fill="#f5c9ca"/></svg>