<?xml version="1.0" encoding="UTF-8"?><svg id="a" xmlns="http://www.w3.org/2000/svg" width="183.72" height="169.99" viewBox="0 0 183.72 169.99"><path d="M91.86,1.37C45.77,1.37,8.41,38.74,8.41,84.83s37.36,83.45,83.45,83.45,83.45-37.36,83.45-83.45S137.95,1.37,91.86,1.37Zm46.12,65.6c.04,.95,.06,1.91,.06,2.87,0,29.28-22.29,63.05-63.05,63.05-12.52,0-24.16-3.67-33.97-9.95,1.73,.2,3.5,.31,5.29,.31,10.38,0,19.94-3.54,27.52-9.49-9.7-.18-17.88-6.59-20.7-15.39,1.35,.26,2.74,.4,4.17,.4,2.02,0,3.98-.27,5.84-.78-10.14-2.03-17.78-10.99-17.78-21.72,0-.1,0-.19,0-.28,2.99,1.66,6.4,2.66,10.04,2.77-5.95-3.97-9.86-10.76-9.86-18.45,0-4.06,1.1-7.86,3-11.14,10.93,13.41,27.26,22.23,45.68,23.15-.38-1.62-.57-3.31-.57-5.05,0-12.23,9.92-22.16,22.16-22.16,6.37,0,12.13,2.69,16.18,7,5.05-.99,9.79-2.84,14.07-5.38-1.66,5.17-5.17,9.52-9.74,12.26,4.48-.54,8.76-1.72,12.73-3.49-2.97,4.44-6.73,8.35-11.05,11.47Z" fill="#f5c9ca" fill-rule="evenodd"/></svg>