<?xml version="1.0" encoding="UTF-8"?><svg id="a" xmlns="http://www.w3.org/2000/svg" width="183.72" height="169.99" viewBox="0 0 183.72 169.99"><path d="M91.86,1.37C45.77,1.37,8.41,38.74,8.41,84.83s37.36,83.45,83.45,83.45,83.45-37.36,83.45-83.45S137.95,1.37,91.86,1.37Zm52.97,113.81c-.17,.31-.41,.54-.67,.76-.38,.32-.81,.56-1.25,.8-1.93,1.05-3.98,1.79-6.1,2.37-.9,.24-1.8,.5-2.7,.77-.63,.18-1.21,.46-1.79,.76-.98,.51-1.53,1.31-1.74,2.37-.11,.59-.18,1.18-.29,1.77-.27,1.48-.8,2.03-2.26,2.28-.51,.09-1.03,.14-1.55,.17-1.3,.07-2.6,.11-3.91,.18-2.95,.17-5.85,.62-8.66,1.54-1.19,.39-2.33,.9-3.42,1.52-1.15,.66-2.29,1.35-3.42,2.04-1.81,1.09-3.64,2.13-5.61,2.9-2.2,.85-4.47,1.36-6.82,1.57-1.98,.18-3.96,.15-5.93-.07-2.95-.33-5.75-1.19-8.4-2.55-1.23-.63-2.42-1.33-3.59-2.05-.87-.53-1.74-1.05-2.61-1.57-2.08-1.24-4.33-2.03-6.68-2.55-2.14-.47-4.31-.73-6.5-.81-1.15-.04-2.29-.09-3.44-.16-.65-.04-1.3-.12-1.93-.29-.89-.23-1.46-.77-1.64-1.69-.1-.51-.18-1.03-.27-1.54-.02-.1-.02-.21-.04-.31-.19-1.36-.87-2.36-2.15-2.94-.79-.35-1.59-.64-2.42-.87-1.43-.4-2.87-.75-4.27-1.25-1.23-.44-2.42-.96-3.56-1.59-.34-.19-.68-.39-1-.61-.21-.15-.42-.31-.6-.5-.67-.69-.61-1.32,.15-1.91,.37-.29,.8-.48,1.22-.69,2.98-1.46,5.8-3.17,8.43-5.2,3.75-2.89,6.96-6.28,9.45-10.32,1.33-2.16,2.41-4.43,3.12-6.88,.22-.78,.38-1.57,.41-2.38,.03-.8-.24-1.48-.77-2.06-.32-.35-.68-.65-1.05-.93-1.09-.81-2.21-1.56-3.35-2.3-1.44-.94-2.88-1.88-4.32-2.82-.72-.47-1.41-.98-2.04-1.57-.46-.43-.86-.9-1.19-1.44-.68-1.14-.73-2.31-.22-3.52,.35-.83,.97-1.41,1.81-1.74,.92-.36,1.88-.39,2.85-.23,1.13,.19,2.23,.54,3.3,.93,1.1,.4,2.19,.83,3.29,1.24,.51,.19,1.02,.38,1.57,.47,.13,.02,.26,.06,.39,.05,.63-.02,1.15-.23,1.15-1.07,0-.7-.04-1.41-.08-2.11-.26-3.8-.36-7.6-.2-11.41,.1-2.42,.35-4.83,.89-7.2,.75-3.3,2.12-6.3,4.17-9,3.78-4.99,8.76-8.15,14.74-9.83,3.26-.92,6.6-1.22,9.98-1.12,3.57,.11,7.03,.78,10.37,2.07,3.16,1.23,6.05,2.93,8.54,5.25,3.14,2.92,5.56,6.33,6.87,10.47,.59,1.87,.97,3.78,1.2,5.72,.36,3.01,.37,6.03,.34,9.06-.03,2.29-.14,4.58-.31,6.87-.03,.39-.04,.78-.05,1.17-.01,.85,.47,1.2,1.32,1.12,.31-.03,.62-.11,.91-.21,.83-.29,1.66-.6,2.49-.92,1.39-.53,2.77-1.05,4.22-1.39,.97-.23,1.95-.34,2.94-.12,2.25,.51,3.42,2.75,2.55,4.9-.23,.56-.57,1.05-.97,1.5-.58,.64-1.24,1.19-1.95,1.68-.84,.57-1.69,1.12-2.54,1.68-1.41,.93-2.83,1.86-4.24,2.8-.58,.39-1.15,.8-1.71,1.23-.31,.24-.59,.51-.85,.8-.53,.59-.77,1.29-.72,2.08,.05,.76,.18,1.5,.39,2.23,.67,2.34,1.69,4.53,2.94,6.62,2.3,3.84,5.27,7.11,8.73,9.93,2.94,2.4,6.16,4.37,9.56,6.03,.3,.15,.6,.31,.89,.48,.23,.13,.42,.31,.57,.53,.23,.33,.26,.67,.07,1.03Z" fill="#f5c9ca" fill-rule="evenodd"/></svg>