<?xml version="1.0" encoding="UTF-8"?><svg id="a" xmlns="http://www.w3.org/2000/svg" width="459.65" height="191.74" viewBox="0 0 459.65 191.74"><path d="M459.83,140.18c-.26,.97-.55,1.93-.76,2.91-2.76,12.56-12.15,21.04-24.89,22.55-1.69,.2-2.29-.22-2.22-1.98,.12-3,.07-6,.01-9-.02-1.18,.35-1.6,1.58-1.81,8.19-1.39,13.36-7.6,13.37-15.91,.02-14.18,.03-28.35,.04-42.53,0-.75,0-1.49,0-2.52h12.86v48.28Z" fill="#f5c9ca"/><path d="M0,97.65c1.45-2.7,3.87-3.03,6.64-2.96,11.53,.31,23.06,.55,34.6,.7,1.87,.02,2.69,.52,2.66,2.43-.01,1.12,.27,2.24,.45,3.6-1.33,.1-2.51,.23-3.7,.28-11.4,.39-22.8,.72-34.19,1.19-2.77,.12-5.03-.37-6.46-2.94v-2.3Z" fill="#f5c9ca"/><path d="M459.83,87.68c-3.62-.06-7.24-.2-10.86-.14-1.61,.03-2.09-.51-2.04-2.08,.1-3.12,.07-6.24,.02-9.35-.02-1.33,.31-1.99,1.81-1.94,3.69,.11,7.38,.08,11.07,.11v13.41Z" fill="#f5c9ca"/><path d="M47.85,101.91c1.54-.11,2.67-.24,3.8-.28,7.08-.22,14.16-.45,21.25-.58,.83-.02,1.83,.39,2.47,.92,2.39,2.01,5.32,2.01,7.38-.16,1.9-2.01,1.9-5.08,0-7.1-1.97-2.09-5.08-2.06-7.41-.1-.65,.55-1.65,.97-2.48,.97-8.11-.06-16.21-.27-24.32-.32-2.01-.01-1.8-1.12-1.58-2.37,1.18-6.53,4.66-11.8,9.17-16.48,7.34-7.62,16.26-12.88,25.82-17.17,1.12-.5,1.67-.36,2.16,.84,1.29,3.19,2.76,6.32,4.03,9.51,.29,.72,.3,1.72,.03,2.45-1.08,2.96,.02,5.83,2.83,6.98,2.57,1.04,5.6-.23,6.7-2.81,1.13-2.65-.08-5.44-2.91-6.78-.49-.23-1.16-.52-1.33-.94-1.54-3.89-2.99-7.83-4.45-11.71,12.28-6.53,44.44-8.64,55.79-3.64-.71,.92-1.31,1.85-2.06,2.66-2.47,2.66-4.85,5.43-7.52,7.88-2.38,2.17-4.5,1.69-6.08-1.14-.93-1.66-1.6-3.47-2.39-5.21-.25-.54-.52-1.07-.78-1.6-.17,.03-.33,.06-.5,.08-.05,.85-.09,1.71-.16,2.56-.12,1.39-.14,2.81-.43,4.17-1.39,6.49-5.98,9.55-12.56,8.42-1.99-.34-3.95-.84-6.14-.9,.5,.41,1.07,.75,1.5,1.23,1.96,2.14,4.14,4.14,5.76,6.52,1.69,2.48,1.44,5.31-.52,7.66-1.95,2.34-4.14,4.49-6.24,6.71-.34,.36-.73,.67-1.5,1.37,.92-.1,1.36-.14,1.8-.2,3.21-.43,6.43-1.22,9.64-1.22,4.75,0,7.57,2.42,8.91,6.95,.58,1.94,.97,3.93,1.82,6,.24-.65,.48-1.3,.72-1.95,.83-2.27,1.47-4.64,2.54-6.78,1.71-3.41,4.65-4.79,8.42-4.2,1.76,.28,3.47,.8,5.2,1.23,.78,.19,1.54,.45,2.7,.79-.35-.83-.53-1.27-.72-1.7-.51-1.17-1.13-2.3-1.51-3.51-1.55-4.82-.51-7.1,4.16-9.1,2.62-1.12,5.29-2.12,7.93-3.64-.69-.05-1.38-.11-2.06-.15-1.91-.12-3.83-.09-5.71-.39-2.8-.44-3.86-2.46-2.18-4.68,2.29-3.03,5.03-5.73,7.65-8.5,.95-1.01,2.12-1.81,3.32-2.81,3.78,3.31,6.16,7.22,6.6,12.19,.55,6.36-1.91,11.76-5.57,16.68-6,8.06-13.98,13.75-22.81,18.28-16.6,8.52-34.22,12.8-52.93,12.2-8.96-.29-17.63-1.87-25.53-6.43-3.42-1.98-6.33-4.52-8.36-7.97-.44-.75-.77-1.57-1.32-2.73Z" fill="#f5c9ca"/><path d="M169.74,92.02c.2,.69,.51,1.37,.59,2.07,1.84,15.13,3.66,30.27,5.48,45.4,.23,1.9,.4,3.81,.74,5.69,1.38,7.51-1.16,13.98-5.4,19.93-6.33,8.9-15,14.83-24.86,19.17-11.42,5.02-23.38,7.7-35.87,7.45-7.84-.16-15.47-1.61-22.54-5.27-6.3-3.26-10.78-8.05-13.56-14.71-6.54-15.65-13.38-31.18-20.08-46.76-.27-.63-.32-1.35-.47-2.03,.17-.1,.35-.21,.52-.31,.54,.44,1.14,.82,1.6,1.33,14.36,16.1,28.7,32.21,43.05,48.32,.34,.38,.65,.8,1.05,1.11,.61,.47,1.29,.86,1.94,1.28,.38-.7,.92-1.36,1.13-2.11,4.18-14.92,8.32-29.85,12.47-44.78,.74-2.65,1.19-2.75,3.15-.83,11.16,10.96,22.32,21.91,33.5,32.84,.46,.45,1.28,1.01,1.7,.87,.48-.17,.86-1.04,1-1.67,4-19.23,7.95-38.46,11.92-57.7,.53-2.56,1.05-5.12,1.62-7.67,.13-.57,.43-1.1,.65-1.65,.23,0,.45,.02,.68,.03Z" fill="#f5c9ca"/><path d="M292.43,140.63c0-6.83-.02-13.66,0-20.49,.04-13.13,8.35-24.3,20.72-27.91,12.46-3.63,25.47,1.25,32.58,12.22,11.39,17.55,.13,41.71-20.7,44.03-5.8,.65-11.72,.34-17.59,.3-1.89-.01-2.59,.42-2.52,2.43,.15,4.02-.03,8.04,.07,12.06,.04,1.62-.34,2.3-2.11,2.21-2.8-.14-5.62-.11-8.42,0-1.58,.06-2.09-.45-2.07-2.06,.07-7.6,.03-15.19,.03-22.79Zm25.67-4.3s0-.06,0-.09c2.16-.11,4.38,.03,6.48-.39,8.08-1.61,13.65-9.04,13.05-17.14-.6-8.12-7.48-14.75-15.63-15.08-8.25-.34-15.64,5.44-16.65,13.76-.67,5.54-.24,11.2-.41,16.81-.05,1.74,.65,2.19,2.26,2.16,3.63-.08,7.27-.03,10.9-.03Z" fill="#f5c9ca"/><path d="M384.38,125.94c2.71,5.78,6.63,9.22,12.33,10.05,3.63,.53,7.38,.34,11.07,.42,2.11,.05,4.21,.04,6.32,0,.98-.02,1.56,.2,1.54,1.37-.05,3.25,.03,6.51-.07,9.76-.01,.46-.72,1.3-1.09,1.28-7.19-.22-14.43,.83-21.56-.73-11.36-2.48-20.39-12.37-21.9-23.87-2.16-16.44,8.65-30.65,25.03-32.91,16.67-2.3,32.22,11.18,32.3,28.03,0,1.59-.11,3.18-.17,4.78-.06,1.42-.76,1.86-2.2,1.86-10.91-.06-21.83-.04-32.74-.04-2.78,0-5.56,0-8.85,0Zm29.96-12.11c-1.61-5.79-8.37-10.21-15.2-10.14-6.2,.07-13.02,4.81-14.35,10.14h29.55Z" fill="#f5c9ca"/><path d="M227.12,126.39c0,6.77-.04,13.53,.04,20.3,.02,1.66-.44,2.26-2.16,2.18-2.8-.13-5.62-.13-8.42,0-1.75,.08-2.29-.46-2.28-2.25,.13-13.27,.16-26.55,.22-39.82q.01-3.13-3.13-3.13c-2.94,0-5.88-.08-8.81,.03-1.62,.06-2.31-.34-2.21-2.11,.14-2.55,.13-5.11,0-7.66-.09-1.75,.63-2.2,2.23-2.15,3.19,.09,6.38-.03,9.57,.04,1.59,.04,2.25-.42,2.21-2.17-.08-4.4,.11-8.8,.07-13.2-.01-1.61,.41-2.34,2.15-2.27,2.8,.11,5.62,.11,8.42,0,1.74-.07,2.15,.62,2.11,2.25-.1,4.47,.02,8.94-.06,13.4-.03,1.53,.53,2.02,1.98,2,3.45-.06,6.89,.01,10.34-.05,1.31-.02,1.82,.43,1.77,1.78-.09,2.68-.1,5.36-.02,8.04,.05,1.54-.39,2.16-2.04,2.1-3.31-.12-6.64,.03-9.96-.07-1.59-.05-2.1,.48-2.08,2.07,.07,6.89,.03,13.79,.03,20.68Z" fill="#f5c9ca"/><path d="M366.8,111.44c0,11.62,0,23.25,0,34.87,0,2.52-.01,2.52-2.54,2.52-2.68,0-5.37-.09-8.04,.04-1.66,.08-2.04-.58-2.04-2.11,.02-12.64-.02-25.29-.03-37.93,0-10.79,.04-21.59-.04-32.38-.01-1.82,.59-2.31,2.3-2.27,2.68,.07,5.37,.02,8.04-.15,1.82-.11,2.42,.45,2.41,2.34-.08,11.69-.04,23.37-.04,35.06h0Z" fill="#f5c9ca"/><path d="M240.53,132.24c.2-5.73-.02-11.52,.69-17.19,1.64-13.01,13.38-23.1,26.44-23.27,1.15-.02,1.62,.36,1.6,1.53-.04,2.94,.04,5.88-.07,8.81-.02,.51-.7,1.36-1.18,1.44-10.39,1.64-14.98,6.87-15.07,17.46-.07,8.55-.05,17.11,.02,25.66,.01,1.66-.43,2.28-2.15,2.2-2.74-.13-5.49-.1-8.23,0-1.43,.05-1.89-.45-1.87-1.87,.06-4.91,.02-9.83,.02-14.75-.07,0-.13,0-.2,0Z" fill="#f5c9ca"/><path d="M287.02,120.45c0,8.75-.04,17.5,.04,26.24,.01,1.67-.47,2.25-2.17,2.18-2.87-.13-5.75-.08-8.62-.01-1.26,.03-1.84-.28-1.84-1.7,.04-17.88,.04-35.76,0-53.64,0-1.4,.59-1.75,1.84-1.73,2.94,.05,5.88,.07,8.81,0,1.51-.04,1.97,.55,1.96,2.03-.05,8.88-.03,17.75-.02,26.63Z" fill="#f5c9ca"/><path d="M130.56,83c-2.53,0-4.59-1.85-4.78-4.28-.22-2.82,1.39-4.97,4.18-5.17,1.5-.1,2.42-.73,3.34-1.8,14.5-16.99,29.02-33.96,43.57-50.91,.68-.79,1.56-1.57,2.51-1.95,1.76-.71,3.74,.09,4.7,1.6,1,1.58,.76,3.66-.74,5.27-3.27,3.5-6.59,6.95-9.88,10.42-12.44,13.09-24.88,26.17-37.28,39.3-.48,.51-.75,1.44-.71,2.15,.18,3.01-1.91,5.36-4.91,5.37Z" fill="#f5c9ca"/><path d="M87.45,53.87c-1.68,.65-3.2,1.23-4.89,1.88-1.56-3.56-3.08-6.99-4.58-10.43-5.52-12.69-11.03-25.39-16.56-38.08-.68-1.55-1.04-3.27,.16-4.5,.92-.94,2.43-1.7,3.73-1.79,1.69-.12,2.87,1.2,3.48,2.82,1.65,4.36,3.28,8.72,4.91,13.08,4.42,11.83,8.84,23.66,13.26,35.49,.15,.41,.27,.84,.49,1.53Z" fill="#f5c9ca"/></svg>